<svg width="64" height="64" viewBox="0 0 64 64" fill="none" xmlns="http://www.w3.org/2000/svg">
<path d="M28.4844 37.3594C28.0938 40.9531 26.8047 43.7031 24.6172 45.6094C22.4453 47.5156 19.5469 48.4688 15.9219 48.4688C13.3906 48.4688 11.1484 47.8359 9.19531 46.5703C7.25781 45.3047 5.75781 43.5156 4.69531 41.2031C3.63281 38.875 3.09375 36.2188 3.07812 33.2344V28.8047C3.07812 25.7734 3.60938 23.0859 4.67188 20.7422C5.73438 18.3984 7.25781 16.5938 9.24219 15.3281C11.2422 14.0469 13.5391 13.4062 16.1328 13.4062C19.7891 13.4062 22.6719 14.3984 24.7812 16.3828C26.9062 18.3516 28.1406 21.0781 28.4844 24.5625H25.5781C24.8594 18.7656 21.7109 15.8672 16.1328 15.8672C13.0391 15.8672 10.5703 17.0234 8.72656 19.3359C6.89844 21.6484 5.98438 24.8438 5.98438 28.9219V33.0938C5.98438 37.0312 6.875 40.1719 8.65625 42.5156C10.4531 44.8594 12.875 46.0312 15.9219 46.0312C18.9375 46.0312 21.2109 45.3125 22.7422 43.875C24.2734 42.4219 25.2188 40.25 25.5781 37.3594H28.4844Z" fill="#EBEBEB"/>
<path d="M60.125 43.9453C59.125 45.3672 57.5547 46.4766 55.4141 47.2734C53.2891 48.0703 50.9062 48.4688 48.2656 48.4688C45.5938 48.4688 43.2188 47.8281 41.1406 46.5469C39.0625 45.2656 37.4531 43.4531 36.3125 41.1094C35.1719 38.7656 34.5938 36.0781 34.5781 33.0469V28.7344C34.5781 24 35.7734 20.2656 38.1641 17.5312C40.5547 14.7813 43.7656 13.4062 47.7969 13.4062C51.3125 13.4062 54.1406 14.3047 56.2812 16.1016C58.4219 17.8828 59.6953 20.3438 60.1016 23.4844H57.2188C56.7969 20.9844 55.7734 19.0938 54.1484 17.8125C52.5391 16.5156 50.4297 15.8672 47.8203 15.8672C44.6328 15.8672 42.1094 17 40.25 19.2656C38.3906 21.5312 37.4609 24.7266 37.4609 28.8516V32.8828C37.4609 35.4766 37.8984 37.7734 38.7734 39.7734C39.6641 41.7578 40.9297 43.2969 42.5703 44.3906C44.2266 45.4844 46.125 46.0312 48.2656 46.0312C50.75 46.0312 52.8828 45.6406 54.6641 44.8594C55.8203 44.3438 56.6797 43.7422 57.2422 43.0547V34.2422H48.0781V31.8047H60.125V43.9453Z" fill="#2FB2D0"/>
</svg>
