<svg width="45" height="45" viewBox="0 0 45 45" fill="none" xmlns="http://www.w3.org/2000/svg">
<g clip-path="url(#clip0)">
<path d="M0 8.00074V35.6814H13.4156C14.6369 35.6837 15.8534 35.5274 17.0344 35.2164C18.1623 34.9314 19.2295 34.4448 20.1844 33.7801C21.103 33.1307 21.8532 32.2712 22.3725 31.2732C22.9087 30.257 23.1787 29.0476 23.1787 27.6451C23.1787 25.9126 22.7662 24.437 21.9262 23.2014C21.09 21.9751 19.8281 21.1145 18.1237 20.6251C19.3762 20.0326 20.31 19.2695 20.9475 18.3414C21.5812 17.4114 21.8962 16.247 21.8962 14.8539C21.8962 13.5639 21.6862 12.4764 21.2644 11.6064C20.8587 10.7555 20.2359 10.0267 19.4587 9.49324C18.6085 8.93635 17.6586 8.54924 16.6612 8.35324C15.4735 8.10761 14.2629 7.98944 13.05 8.00074H0ZM29.3756 9.85699V12.5889H40.5975V9.85887L29.3756 9.85699ZM6.09562 12.7182H11.7956C12.3356 12.7182 12.8625 12.7557 13.3631 12.8551C13.875 12.9414 14.3156 13.1064 14.7056 13.3426C15.0994 13.5676 15.4106 13.8901 15.645 14.3026C15.8719 14.7151 15.9844 15.2476 15.9844 15.8926C15.9844 17.0532 15.645 17.8989 14.9437 18.4107C14.235 18.9301 13.3425 19.187 12.2625 19.187H6.09375L6.09562 12.7182ZM35.2425 15.0695C33.705 15.0695 32.3194 15.3432 31.0612 15.887C29.805 16.4307 28.725 17.177 27.8156 18.122C26.8954 19.0869 26.181 20.2287 25.7156 21.4782C25.2157 22.819 24.9647 24.2398 24.975 25.6707C24.975 27.2214 25.2169 28.652 25.695 29.9457C26.1787 31.2414 26.8575 32.3476 27.7312 33.2832C28.6415 34.2274 29.7456 34.963 30.9675 35.4395C32.2425 35.9439 33.6637 36.1989 35.2425 36.1989C37.5075 36.1989 39.45 35.6795 41.0456 34.637C42.6581 33.6001 43.8394 31.8789 44.6194 29.4676H39.7725C39.585 30.0864 39.0975 30.6845 38.3025 31.2414C37.4962 31.8039 36.5362 32.0851 35.4262 32.0851C33.8812 32.0851 32.6888 31.6782 31.8656 30.872C31.0387 30.0657 30.5025 28.5676 30.5025 26.9832H44.9644C45.0738 25.4849 44.9447 23.9786 44.5819 22.5207C44.2469 21.1502 43.6483 19.858 42.8194 18.7164C41.9996 17.5997 40.9298 16.6905 39.6956 16.0614C38.4206 15.3976 36.9394 15.0695 35.2425 15.0695ZM35.0756 19.2264C36.4275 19.2264 37.5375 19.6201 38.19 20.342C38.8462 21.0732 39.3281 22.112 39.4594 23.5145H30.5025C30.5382 23.0661 30.6225 22.6229 30.7537 22.1926C30.8944 21.6939 31.1362 21.2251 31.4925 20.7807C31.8487 20.3457 32.3175 19.9745 32.8875 19.6745C33.4688 19.3745 34.1963 19.2264 35.0756 19.2264ZM6.09562 23.3457H12.72C14.0325 23.3457 15.0994 23.6457 15.8981 24.2532C16.6969 24.8682 17.0981 25.8807 17.0981 27.3076C17.0981 28.0351 16.9819 28.6389 16.7344 29.1001C16.4906 29.5689 16.1531 29.9382 15.7444 30.2064C15.3375 30.4876 14.8537 30.6751 14.3081 30.7951C13.7719 30.9151 13.2019 30.9676 12.6 30.9676H6.09375L6.09562 23.3457Z" fill="#EBEBEB"/>
</g>
<defs>
<clipPath id="clip0">
<rect width="45" height="45" fill="white"/>
</clipPath>
</defs>
</svg>
