<svg width="45" height="45" viewBox="0 0 45 45" fill="none" xmlns="http://www.w3.org/2000/svg">
<g clip-path="url(#clip0)">
<path d="M43.4069 4.73428L34.1444 0.277407C33.6209 0.0253258 33.032 -0.0577572 32.4593 0.0396639C31.8865 0.137085 31.3582 0.41019 30.9475 0.821158L13.21 17.0024L5.48502 11.1374C5.1365 10.8731 4.70645 10.739 4.26946 10.7585C3.83246 10.7781 3.41608 10.9499 3.09252 11.2443L0.61377 13.498C0.420608 13.6736 0.266241 13.8876 0.160551 14.1263C0.0548607 14.365 0.00017693 14.6231 4.28632e-07 14.8842C-0.000176072 15.1452 0.0541586 15.4034 0.159526 15.6423C0.264893 15.8811 0.418971 16.0953 0.611895 16.2712L7.31127 22.3837L0.611895 28.4962C0.418971 28.672 0.264893 28.8862 0.159526 29.125C0.0541586 29.3639 -0.000176072 29.6221 4.28632e-07 29.8831C0.00017693 30.1442 0.0548607 30.4023 0.160551 30.641C0.266241 30.8797 0.420608 31.0937 0.61377 31.2693L3.09439 33.5212C3.41796 33.8155 3.83434 33.9874 4.27133 34.0069C4.70833 34.0264 5.13838 33.8924 5.48689 33.628L13.2119 27.763L30.9494 43.9443C31.3596 44.3553 31.8876 44.6285 32.4601 44.726C33.0326 44.8234 33.6213 44.7402 34.1444 44.488L43.4106 40.0312C43.8874 39.8011 44.2895 39.4411 44.5708 38.9927C44.852 38.5442 45.001 38.0255 45.0006 37.4962V7.26928C45.0007 6.73953 44.8511 6.22053 44.5692 5.77205C44.2872 5.32357 43.8843 4.96384 43.4069 4.73428ZM33.7581 32.5987L20.2994 22.3837L33.7581 12.1687V32.5987Z" fill="#53C9E4"/>
</g>
<defs>
<clipPath id="clip0">
<rect width="45" height="45" fill="white"/>
</clipPath>
</defs>
</svg>
