<svg width="45" height="45" viewBox="0 0 45 45" fill="none" xmlns="http://www.w3.org/2000/svg">
<path d="M22.5 1C10.0687 1 0 11.0744 0 23.5C0 33.4431 6.44625 41.875 15.3844 44.8469C16.5094 45.0587 16.9219 44.3631 16.9219 43.765C16.9219 43.2306 16.9031 41.815 16.8938 39.94C10.635 41.2975 9.315 36.9212 9.315 36.9212C8.29125 34.3244 6.81187 33.6306 6.81187 33.6306C4.77375 32.2356 6.96938 32.2638 6.96938 32.2638C9.22875 32.4212 10.4156 34.5812 10.4156 34.5812C12.4219 38.0219 15.6825 37.0281 16.9688 36.4525C17.1713 34.9975 17.7506 34.0056 18.3938 33.4431C13.3969 32.8806 8.145 30.9456 8.145 22.3244C8.145 19.8681 9.01688 17.8619 10.4606 16.2869C10.2075 15.7188 9.44812 13.4313 10.6575 10.3319C10.6575 10.3319 12.5419 9.72813 16.845 12.6381C18.645 12.1375 20.5575 11.89 22.47 11.8787C24.3825 11.89 26.295 12.1375 28.095 12.6381C32.37 9.72813 34.2544 10.3319 34.2544 10.3319C35.4637 13.4313 34.7044 15.7188 34.4794 16.2869C35.9137 17.8619 36.7856 19.8681 36.7856 22.3244C36.7856 30.9681 31.5263 32.8712 26.52 33.4244C27.3075 34.0994 28.0388 35.4794 28.0388 37.5869C28.0388 40.5981 28.0106 43.0169 28.0106 43.7481C28.0106 44.3387 28.4044 45.0419 29.5575 44.8169C38.5594 41.8656 45 33.4281 45 23.5C45 11.0744 34.9256 1 22.5 1Z" fill="#EBEBEB"/>
</svg>
