<svg width="60" height="60" viewBox="0 0 60 60" fill="none" xmlns="http://www.w3.org/2000/svg">
<path d="M27.1351 34.3926C26.8256 37.2409 25.8038 39.4205 24.0701 40.9313C22.3486 42.4422 20.0515 43.1976 17.1784 43.1976C15.1722 43.1976 13.3951 42.6961 11.8471 41.6931C10.3115 40.6898 9.12263 39.272 8.28052 37.4392C7.43841 35.5939 7.01117 33.4887 6.99878 31.1233V27.6124C6.99878 25.21 7.41984 23.0798 8.26195 21.2223C9.10406 19.3647 10.3115 17.9344 11.8843 16.9313C13.4694 15.9158 15.2898 15.4081 17.3456 15.4081C20.2434 15.4081 22.5282 16.1944 24.2001 17.7672C25.8843 19.3276 26.8627 21.4886 27.1351 24.2503H24.8316C24.2621 19.6558 21.7666 17.3585 17.3456 17.3585C14.8936 17.3585 12.9369 18.275 11.4756 20.1078C10.0267 21.9407 9.30221 24.4731 9.30221 27.7053V31.0118C9.30221 34.1326 10.0081 36.6218 11.4199 38.4794C12.844 40.337 14.7635 41.2657 17.1784 41.2657C19.5685 41.2657 21.3704 40.6961 22.584 39.5568C23.7975 38.405 24.5469 36.6837 24.8316 34.3926H27.1351Z" fill="#EBEBEB"/>
<path d="M52.2121 39.6124C51.4195 40.7394 50.175 41.6187 48.4785 42.2503C46.7943 42.8818 44.9056 43.1976 42.8128 43.1976C40.6952 43.1976 38.8128 42.6898 37.1657 41.6744C35.5187 40.6589 34.2431 39.2224 33.3392 37.3648C32.435 35.5072 31.977 33.3772 31.9646 30.9746V27.5568C31.9646 23.8044 32.912 20.8446 34.8065 18.6774C36.7013 16.4979 39.2463 15.4081 42.4413 15.4081C45.2276 15.4081 47.4691 16.1201 49.1658 17.5443C50.8624 18.9561 51.8717 20.9065 52.1937 23.3957H49.9089C49.5743 21.4143 48.7632 19.9158 47.4754 18.9003C46.1998 17.8725 44.528 17.3585 42.4598 17.3585C39.9335 17.3585 37.9335 18.2564 36.4598 20.0521C34.9861 21.8476 34.2494 24.3803 34.2494 27.6496V30.8446C34.2494 32.9005 34.5961 34.7209 35.2896 36.3059C35.9955 37.8787 36.9985 39.0985 38.2989 39.9655C39.6115 40.8322 41.1163 41.2657 42.8128 41.2657C44.7819 41.2657 46.4722 40.9561 47.8841 40.337C48.8004 39.9283 49.4815 39.4516 49.9274 38.9066V31.922H42.6641V29.9903H52.2121V39.6124Z" fill="#2FB2D0"/>
</svg>
