<svg width="45" height="45" viewBox="0 0 45 45" fill="none" xmlns="http://www.w3.org/2000/svg">
<path d="M26.6812 22.5075C26.6812 23.6191 26.2398 24.6852 25.454 25.4714C24.6681 26.2576 23.6022 26.6995 22.4906 26.7C21.3787 26.7 20.3123 26.2583 19.5261 25.4721C18.7398 24.6858 18.2981 23.6194 18.2981 22.5075C18.2981 21.3959 18.7396 20.3298 19.5254 19.5436C20.3113 18.7574 21.3772 18.3155 22.4888 18.315C23.6007 18.315 24.667 18.7567 25.4533 19.543C26.2395 20.3292 26.6812 21.3956 26.6812 22.5075ZM31.6462 2.46376C29.1225 2.46376 25.8206 4.26376 22.4812 7.38001C19.1437 4.28064 15.84 2.50126 13.3181 2.50126C12.5494 2.50126 11.85 2.67564 11.2444 3.02251C8.66625 4.50939 8.08875 9.14251 9.42 14.9569C3.7125 16.7194 0 19.5375 0 22.5075C0 25.4888 3.73125 28.3144 9.45563 30.0638C8.13563 35.9006 8.72437 40.5413 11.3081 42.0263C11.9081 42.3769 12.6019 42.5419 13.3744 42.5419C15.8962 42.5419 19.2 40.7419 22.5394 37.6219C25.8769 40.7231 29.1806 42.5025 31.7025 42.5025C32.4713 42.5025 33.1706 42.3338 33.7762 41.9869C36.3525 40.5019 36.9319 35.8688 35.6006 30.0525C41.2875 28.305 45 25.4813 45 22.5075C45 19.5263 41.2688 16.7006 35.5444 14.9475C36.8644 9.11626 36.2756 4.47189 33.6919 2.98501C33.0673 2.63375 32.3609 2.45392 31.6444 2.46376H31.6462ZM31.6369 4.50751V4.51876C32.0588 4.51876 32.3981 4.60126 32.6831 4.75689C33.9319 5.47314 34.4737 8.19751 34.0519 11.7019C33.9506 12.5644 33.7856 13.4738 33.5831 14.4019C31.6659 13.938 29.7196 13.6035 27.7575 13.4006C26.589 11.7882 25.3143 10.2554 23.9419 8.81251C26.9269 6.03751 29.73 4.51501 31.6388 4.50939L31.6369 4.50751ZM13.3181 4.54501C15.2156 4.54501 18.0319 6.06001 21.0244 8.82001C19.7381 10.17 18.4556 11.7019 17.2369 13.3988C15.2702 13.5992 13.3199 13.9363 11.4 14.4075C11.1987 13.5282 11.0398 12.6396 10.9237 11.745C10.4925 8.24251 11.025 5.52001 12.2625 4.79439C12.6187 4.62564 13.0125 4.55626 13.3181 4.54689V4.54501ZM22.4719 10.2638C23.325 11.1413 24.1781 12.1238 25.0219 13.1963C24.1969 13.1588 23.3531 13.1325 22.5 13.1325C21.6375 13.1325 20.7844 13.1513 19.95 13.1963C20.775 12.1238 21.6281 11.1413 22.4719 10.2619V10.2638ZM22.5 15.1875C23.8875 15.1875 25.2694 15.2513 26.6287 15.3619C27.39 16.4531 28.1325 17.6175 28.8469 18.8494C29.5444 20.0494 30.1781 21.2681 30.7556 22.4981C30.1781 23.7263 29.5444 24.9544 28.8563 26.1544C28.1438 27.3919 27.4069 28.5694 26.6437 29.6606C23.8916 29.9014 21.1239 29.9046 18.3713 29.67C17.5841 28.5386 16.8441 27.3751 16.1531 26.1825C15.4556 24.9825 14.8219 23.7638 14.2444 22.5338C14.8238 21.2854 15.4575 20.063 16.1437 18.87C16.8562 17.6325 17.5931 16.4588 18.3563 15.3675C19.7342 15.2457 21.1167 15.1844 22.5 15.1838V15.1875ZM15.6844 15.6638C15.2344 16.3706 14.7844 17.0944 14.3644 17.8388C13.9425 18.57 13.5487 19.305 13.1737 20.04C12.6769 18.81 12.255 17.5838 11.9062 16.3894C13.1062 16.1081 14.3719 15.8588 15.6844 15.6656V15.6638ZM29.2969 15.6638C30.6 15.8569 31.8563 16.095 33.0581 16.3894C32.7206 17.5744 32.2988 18.7931 31.8206 20.0138C31.0555 18.5213 30.2138 17.0693 29.2987 15.6638H29.2969ZM35.04 16.9294C35.9475 17.2106 36.81 17.5238 37.6181 17.8631C40.8656 19.2506 42.9656 21.0656 42.9656 22.5056C42.9563 23.9456 40.8563 25.7681 37.6087 27.1463C36.8213 27.4838 35.9587 27.7875 35.0681 28.0706C34.5049 26.1646 33.8159 24.298 33.0056 22.4831C33.8494 20.5763 34.5244 18.7144 35.04 16.9256V16.9294ZM9.92438 16.9369C10.4456 18.7369 11.1337 20.6063 11.9869 22.5244C11.1824 24.3284 10.5021 26.1852 9.95063 28.0819C9.04313 27.8006 8.18062 27.4856 7.38188 27.1444C4.13438 25.7625 2.03438 23.9456 2.03438 22.5056C2.03438 21.0656 4.13438 19.2394 7.38188 17.8631C8.16938 17.5256 9.03188 17.2219 9.92438 16.9369ZM31.8206 24.9619C32.3175 26.1938 32.7394 27.4219 33.0881 28.6144C31.8881 28.9088 30.6206 29.1581 29.3081 29.3456C30.222 27.9292 31.0613 26.4659 31.8225 24.9619H31.8206ZM13.1737 24.9994C13.5487 25.7344 13.9425 26.4675 14.3737 27.2025C14.805 27.9338 15.2456 28.65 15.6956 29.3456C14.4313 29.1627 13.1762 28.9212 11.9344 28.6219C12.2719 27.4406 12.6956 26.2181 13.1719 24.9975L13.1737 24.9994ZM33.6 30.6C33.81 31.5244 33.975 32.415 34.0762 33.2681C34.5075 36.7706 33.975 39.4931 32.7375 40.2206C32.4619 40.3894 32.1037 40.4606 31.6819 40.4606C29.7844 40.4606 26.9681 38.9475 23.9756 36.1856C25.2619 34.8356 26.5444 33.3056 27.7631 31.6106C29.8388 31.3894 31.8019 31.0481 33.6 30.5981V30.6ZM11.4188 30.6188C13.2188 31.0575 15.18 31.3969 17.2444 31.6163C18.4819 33.3131 19.7663 34.8544 21.06 36.2025C18.0694 38.9831 15.2625 40.5056 13.3538 40.5056C12.9932 40.5085 12.6373 40.4236 12.3169 40.2581C11.0681 39.5456 10.5263 36.8194 10.9481 33.315C11.0494 32.4525 11.2144 31.545 11.4169 30.6188H11.4188ZM19.9688 31.8188C20.7937 31.8563 21.6375 31.8825 22.4906 31.8825C23.3531 31.8825 24.2062 31.8638 25.0406 31.8188C24.2156 32.8913 23.3625 33.8719 22.5188 34.7531C21.6656 33.8719 20.8125 32.8913 19.9688 31.8188Z" fill="#4ACAFD"/>
</svg>
