<svg width="45" height="45" viewBox="0 0 45 45" fill="none" xmlns="http://www.w3.org/2000/svg">
<g clip-path="url(#clip0)">
<path d="M44.1487 20.4937L24.5006 0.847449C23.9559 0.304729 23.2183 0 22.4494 0C21.6804 0 20.9428 0.304729 20.3981 0.847449L16.3275 4.92557L21.5025 10.1006C22.113 9.89373 22.7694 9.86228 23.3969 10.0098C24.0244 10.1573 24.598 10.4779 25.0525 10.9351C25.5069 11.3922 25.824 11.9677 25.9678 12.5961C26.1115 13.2245 26.0761 13.8807 25.8656 14.49L30.8494 19.4774C31.5869 19.221 32.3898 19.2226 33.1263 19.4821C33.8628 19.7416 34.4894 20.2435 34.9033 20.9056C35.3173 21.5677 35.4941 22.3508 35.4048 23.1266C35.3155 23.9024 34.9654 24.6248 34.4119 25.1756C34.092 25.496 33.712 25.7502 33.2938 25.9237C32.8755 26.0971 32.4272 26.1864 31.9744 26.1864C31.5216 26.1864 31.0732 26.0971 30.655 25.9237C30.2367 25.7502 29.8568 25.496 29.5369 25.1756C29.0575 24.6948 28.7301 24.0837 28.5954 23.4182C28.4607 22.7528 28.5247 22.0624 28.7794 21.4331L24.1125 16.7906V29.025C24.4425 29.1862 24.7537 29.4056 25.0275 29.6775C25.6696 30.3262 26.0298 31.2021 26.0298 32.115C26.0298 33.0278 25.6696 33.9037 25.0275 34.5525C24.7064 34.8738 24.3251 35.1288 23.9054 35.3028C23.4857 35.4767 23.0359 35.5662 22.5816 35.5662C22.1273 35.5662 21.6774 35.4767 21.2577 35.3028C20.838 35.1288 20.4567 34.8738 20.1356 34.5525C19.8151 34.233 19.5608 33.8534 19.3872 33.4354C19.2137 33.0175 19.1244 32.5694 19.1244 32.1168C19.1244 31.6643 19.2137 31.2162 19.3872 30.7982C19.5608 30.3803 19.8151 30.0007 20.1356 29.6812C20.4769 29.3437 20.8612 29.0887 21.27 28.92V16.5656C20.8491 16.3935 20.4665 16.1397 20.1443 15.8187C19.8222 15.4978 19.5669 15.1162 19.3932 14.6959C19.2195 14.2757 19.1309 13.8252 19.1325 13.3705C19.1341 12.9157 19.2259 12.4658 19.4025 12.0468L14.3175 6.93745L0.84375 20.4018C-0.28125 21.5362 -0.28125 23.3718 0.84375 24.5062L20.4937 44.1506C20.7628 44.4199 21.0823 44.6335 21.4339 44.7793C21.7855 44.925 22.1625 45 22.5431 45C22.9238 45 23.3007 44.925 23.6523 44.7793C24.004 44.6335 24.3235 44.4199 24.5925 44.1506L44.1487 24.5943C44.4185 24.3254 44.6326 24.0058 44.7787 23.654C44.9247 23.3022 44.9999 22.925 44.9999 22.544C44.9999 22.1631 44.9247 21.7859 44.7787 21.434C44.6326 21.0822 44.4185 20.7626 44.1487 20.4937Z" fill="#4ACAFD"/>
</g>
<defs>
<clipPath id="clip0">
<rect width="45" height="45" fill="white"/>
</clipPath>
</defs>
</svg>
