<svg width="45" height="45" viewBox="0 0 45 45" fill="none" xmlns="http://www.w3.org/2000/svg">
<path d="M34.6893 42H7.87683C6.5839 42 5.34392 41.4864 4.42969 40.5721C3.51545 39.6579 3.00183 38.4179 3.00183 37.125V10.3125C3.00183 9.01957 3.51545 7.77959 4.42969 6.86535C5.34392 5.95111 6.5839 5.4375 7.87683 5.4375H17.6268V10.3125H7.87683V37.125H34.6893V27.375H39.5643V37.125C39.5643 38.4179 39.0507 39.6579 38.1365 40.5721C37.2222 41.4864 35.9823 42 34.6893 42ZM21.7706 26.6608L18.3337 23.2142L33.6729 7.875H24.9393V3H42.0018V20.0625H37.1268V11.3241L21.7706 26.6608Z" fill="#F5F5F5"/>
</svg>
