<svg width="36" height="37" viewBox="0 0 36 37" fill="none" xmlns="http://www.w3.org/2000/svg">
<path d="M34.56 0.5H1.44C0.6435 0.5 0 1.1435 0 1.94V35.06C0 35.8565 0.6435 36.5 1.44 36.5H34.56C35.3565 36.5 36 35.8565 36 35.06V1.94C36 1.1435 35.3565 0.5 34.56 0.5ZM21.8925 11.2505H28.1205V12.767H21.8925V11.2505ZM18 23.756C17.7087 24.309 17.2927 24.7865 16.785 25.151C16.254 25.52 15.6645 25.79 15.039 25.9475C14.3846 26.1229 13.7095 26.2091 13.032 26.204H5.58V10.8545H12.825C13.5585 10.8545 14.2245 10.922 14.832 11.048C15.435 11.174 15.948 11.39 16.38 11.6825C16.8075 11.975 17.145 12.3665 17.3835 12.8525C17.6175 13.334 17.739 13.937 17.739 14.6525C17.739 15.4265 17.5635 16.0655 17.2125 16.583C16.857 17.1005 16.344 17.519 15.6465 17.8475C16.596 18.1175 17.2935 18.599 17.7525 19.274C18.2205 19.958 18.45 20.777 18.45 21.74C18.45 22.523 18.3015 23.1935 18 23.756ZM30.546 21.38H22.518C22.518 22.253 22.8195 23.09 23.274 23.54C23.733 23.9855 24.39 24.2105 25.2495 24.2105C25.8705 24.2105 26.397 24.053 26.847 23.7425C27.2925 23.432 27.5625 23.1035 27.6615 22.7615H30.3525C29.9205 24.098 29.2635 25.052 28.3725 25.628C27.4905 26.204 26.4105 26.492 25.155 26.492C24.2775 26.492 23.49 26.348 22.7835 26.0735C22.104 25.808 21.492 25.403 20.988 24.881C20.4911 24.3449 20.107 23.7144 19.8585 23.027C19.584 22.2665 19.449 21.4655 19.458 20.66C19.458 19.8275 19.5975 19.0535 19.8675 18.3335C20.385 16.934 21.4605 15.8135 22.833 15.233C23.5665 14.927 24.354 14.774 25.1505 14.783C26.0955 14.783 26.9145 14.963 27.6255 15.332C28.31 15.6844 28.9043 16.1894 29.3625 16.808C29.817 17.4245 30.1365 18.1265 30.339 18.9185C30.5325 19.697 30.6 20.516 30.546 21.38ZM25.056 17.078C24.57 17.078 24.1605 17.1635 23.8455 17.33C23.5305 17.4965 23.2695 17.7035 23.0715 17.942C22.8829 18.1723 22.7436 18.4388 22.662 18.725C22.59 18.9635 22.5405 19.2065 22.5225 19.454H27.495C27.423 18.6755 27.153 18.0995 26.793 17.6945C26.415 17.294 25.8075 17.078 25.056 17.078ZM13.8735 16.6235C14.265 16.34 14.454 15.872 14.454 15.2285C14.4675 14.9225 14.4045 14.621 14.2695 14.3465C14.148 14.126 13.968 13.9415 13.7475 13.811C13.5189 13.6724 13.2649 13.5806 13.0005 13.541C12.7125 13.487 12.42 13.46 12.132 13.4645H8.9685V17.051H12.393C12.9825 17.0555 13.482 16.9115 13.8735 16.6235ZM14.4045 19.8635C13.9635 19.526 13.374 19.3595 12.6405 19.3595H8.9595V23.5895H12.5685C12.906 23.5895 13.2165 23.558 13.518 23.495C13.8195 23.432 14.0895 23.324 14.319 23.171C14.5485 23.0225 14.733 22.82 14.8725 22.559C15.0075 22.298 15.075 21.965 15.075 21.5645C15.075 20.768 14.85 20.2055 14.4045 19.8635Z" fill="#F5F5F5"/>
</svg>
