<svg width="45" height="45" viewBox="0 0 45 45" fill="none" xmlns="http://www.w3.org/2000/svg">
<path d="M29.8656 16.8394H21.2631V0H29.8656C34.5081 0 38.2844 3.77625 38.2844 8.41875C38.2844 13.0612 34.5081 16.8394 29.8656 16.8394ZM24.0212 14.0813H29.8656C32.9875 14.0813 35.5263 11.5406 35.5263 8.42063C35.5263 5.30063 32.9856 2.76 29.8656 2.76H24.0212V14.0813ZM24.0212 16.8394H15.4206C10.7781 16.8394 7.00187 13.0631 7.00187 8.42063C7.00187 3.77813 10.7781 0 15.4206 0H24.0231V16.8394H24.0212ZM15.4206 2.75812C12.2987 2.75812 9.76 5.29875 9.76 8.41875C9.76 11.5387 12.2987 14.0813 15.4206 14.0813H21.265V2.75812H15.4206ZM24.0212 30.9187H15.4206C10.7781 30.9187 7.00187 27.1425 7.00187 22.5C7.00187 17.8575 10.7781 14.0813 15.4206 14.0813H24.0231V30.9187H24.0212ZM15.4206 16.8394C12.2987 16.8394 9.76 19.38 9.76 22.5C9.76 25.62 12.3006 28.1606 15.4206 28.1606H21.265V16.8394H15.4206ZM15.4656 45C10.7987 45 7 41.2238 7 36.5812C7 31.9388 10.7763 28.1625 15.4188 28.1625H24.0212V36.4894C24.0212 41.1825 20.1831 45 15.4656 45ZM15.4206 30.9187C13.9199 30.9207 12.4813 31.5178 11.4201 32.5789C10.359 33.64 9.76198 35.0787 9.76 36.5794C9.76 39.7013 12.3194 42.24 15.4675 42.24C18.6644 42.24 21.2669 39.66 21.2669 36.4875V30.9187H15.4206ZM29.8656 30.9187H29.6819C25.0394 30.9187 21.2631 27.1425 21.2631 22.5C21.2631 17.8575 25.0394 14.0813 29.6819 14.0813H29.8656C34.5081 14.0813 38.2844 17.8575 38.2844 22.5C38.2844 27.1425 34.5081 30.9187 29.8656 30.9187ZM29.6838 16.8394C26.5619 16.8394 24.0231 19.38 24.0231 22.5C24.0231 25.62 26.5637 28.1606 29.6838 28.1606H29.8675C32.9894 28.1606 35.5281 25.62 35.5281 22.5C35.5281 19.38 32.9875 16.8394 29.8675 16.8394H29.6838Z" fill="#4ACAFD"/>
</svg>
