<svg width="45" height="45" viewBox="0 0 45 45" fill="none" xmlns="http://www.w3.org/2000/svg">
<path d="M22.5 0C34.9256 0 45 10.0744 45 22.5C45 34.9256 34.9256 45 22.5 45C10.0744 45 0 34.9256 0 22.5C0 10.0744 10.0744 0 22.5 0ZM18.0281 29.9963C18.3562 31.2056 18.3206 32.3363 17.9831 33.3563L17.8612 33.6937C17.8162 33.8081 17.7638 33.9188 17.715 34.0238C17.4525 34.5675 17.1038 35.0737 16.6744 35.5425C15.3656 36.9656 13.5394 37.5056 12.7556 37.0519C11.9119 36.5606 12.3319 34.5487 13.8506 32.9456C15.4838 31.2244 17.8256 30.1163 17.8256 30.1163V30.1106L18.0281 29.9963ZM36.6112 9.63188C35.595 5.6325 28.9669 4.31813 22.695 6.5475C18.9656 7.87313 14.925 9.95625 12.0206 12.6731C8.565 15.9 8.01562 18.7125 8.2425 19.8881C9.04313 24.0338 14.7244 26.745 17.0606 28.7569V28.7681C16.3725 29.1056 11.3306 31.635 10.1494 34.2525C8.88375 37.0088 10.3462 38.9794 11.3025 39.2306C14.2556 40.0481 17.2931 38.5556 18.9244 36.1388C20.4994 33.7744 20.3606 30.7369 19.6819 29.2463C20.6119 28.9931 21.7069 28.8806 23.1131 29.0513C27.0525 29.5013 27.84 31.9762 27.6694 32.9888C27.5006 33.9994 26.6888 34.59 26.4056 34.7588C26.1244 34.9294 26.04 34.9837 26.0662 35.0981C26.0944 35.2669 26.2369 35.2669 26.46 35.2388C26.7694 35.1825 28.515 34.395 28.5994 32.4806C28.6838 30.0619 26.3756 27.3638 22.2712 27.4181C20.5837 27.4481 19.5131 27.5887 18.7556 27.8981C18.7043 27.8196 18.6373 27.7526 18.5588 27.7013C16.0275 24.9731 11.3306 23.0606 11.5275 19.4325C11.5837 18.1106 12.0619 14.625 20.5275 10.4062C27.4744 6.945 33.0169 7.90313 33.9731 10.0125C35.3475 13.02 31.0181 18.6188 23.79 19.4325C21.0337 19.7419 19.5994 18.675 19.2319 18.2794C18.84 17.8575 18.7838 17.8294 18.6431 17.9156C18.4181 18.0281 18.5588 18.3938 18.6431 18.6188C18.8681 19.1813 19.74 20.1656 21.2606 20.6719C22.5806 21.0938 25.8169 21.345 29.6981 19.8281C34.0556 18.1425 37.4587 13.4438 36.4744 9.50625L36.6112 9.63188Z" fill="#4ACAFD"/>
</svg>
