<svg width="45" height="45" viewBox="0 0 45 45" fill="none" xmlns="http://www.w3.org/2000/svg">
<path d="M0 0H45V45H0V0ZM41.3138 34.2675C40.9856 32.2144 39.6488 30.4894 35.6831 28.8806C34.3031 28.2337 32.7694 27.7837 32.3137 26.7431C32.1431 26.1244 32.1169 25.7869 32.2275 25.4212C32.5088 24.21 33.9431 23.8462 35.0681 24.1838C35.7994 24.4087 36.4744 24.9713 36.8981 25.8713C38.8369 24.6038 38.8369 24.6038 40.1888 23.7619C39.6825 22.9744 39.4312 22.635 39.09 22.2994C37.9087 20.9775 36.3356 20.3025 33.7762 20.3606L32.4544 20.5275C31.1869 20.8369 29.9794 21.5119 29.2481 22.4119C27.1106 24.8325 27.7275 29.0513 30.315 30.795C32.8744 32.7075 36.6169 33.1275 37.095 34.9294C37.545 37.1231 35.4638 37.8262 33.4088 37.5731C31.8881 37.2356 31.0462 36.4744 30.1181 35.0681L26.6869 37.0387C27.0806 37.9388 27.5306 38.3306 28.2056 39.1181C31.4681 42.4106 39.6244 42.2419 41.0887 37.2356C41.1431 37.0669 41.5388 35.9137 41.2275 34.1419L41.3138 34.2675ZM24.4706 20.6831H20.2556C20.2556 24.3169 20.2387 27.9281 20.2387 31.5675C20.2387 33.8775 20.3569 35.9981 19.98 36.6506C19.3612 37.9425 17.7675 37.7775 17.0438 37.5506C16.3013 37.1831 15.9244 36.6769 15.4875 35.9475C15.3694 35.7506 15.2813 35.58 15.2494 35.58L11.8275 37.6894C12.3994 38.8706 13.2338 39.8869 14.31 40.5337C15.9131 41.49 18.0675 41.7994 20.3231 41.2931C21.7913 40.8694 23.0569 39.9975 23.7188 38.6475C24.675 36.9037 24.4725 34.7663 24.4631 32.3738C24.4856 28.5225 24.4631 24.6694 24.4631 20.7881L24.4706 20.6831Z" fill="#4ACAFD"/>
</svg>
