<svg width="100" height="100" viewBox="0 0 100 100" fill="none" xmlns="http://www.w3.org/2000/svg">
<path d="M94 50C94 42.2764 91.9669 34.6888 88.1051 28C84.2433 21.3112 78.6888 15.7567 72 11.8949C65.3112 8.03308 57.7236 6 50 6C42.2764 6 34.6888 8.03308 28 11.8949L29.1 13.8001C35.4544 10.1314 42.6626 8.2 50 8.2C57.3374 8.2 64.5456 10.1314 70.9 13.8001C77.2544 17.4689 82.5311 22.7456 86.1999 29.1C89.8686 35.4544 91.8 42.6626 91.8 50H94Z" fill="#FF729F"/>
<path d="M28 88.1051C21.3112 84.2433 15.7567 78.6888 11.8949 72C8.03307 65.3111 6 57.7236 6 50C6 42.2764 8.03308 34.6888 11.8949 28C15.7567 21.3111 21.3112 15.7567 28 11.8949L29.1 13.8001C22.7456 17.4688 17.4689 22.7456 13.8001 29.1C10.1314 35.4544 8.2 42.6626 8.2 50C8.2 57.3374 10.1314 64.5456 13.8001 70.9C17.4689 77.2544 22.7456 82.5311 29.1 86.1999L28 88.1051Z" fill="#8C95FF"/>
<path d="M94 50C94 57.7236 91.9669 65.3112 88.1051 72C84.2433 78.6888 78.6888 84.2433 72 88.1051C65.3112 91.9669 57.7236 94 50 94C42.2764 94 34.6888 91.9669 28 88.1051L29.1 86.1999C35.4544 89.8686 42.6626 91.8 50 91.8C57.3374 91.8 64.5456 89.8686 70.9 86.1999C77.2544 82.5311 82.5311 77.2544 86.1999 70.9C89.8686 64.5456 91.8 57.3374 91.8 50L94 50Z" fill="#4ACAFD"/>
<path d="M47.9263 58.0588C47.6104 62.8627 46.307 66.3922 44.0162 68.6471C41.7255 70.8824 38.5559 72 34.5076 72C30.3408 72 27.0527 70.4412 24.6435 67.3235C22.2342 64.1863 21.0197 59.9314 21 54.5588V45.2647C21 39.8725 22.2244 35.6471 24.6731 32.5882C27.1416 29.5294 30.5086 28 34.7742 28C38.8028 28 41.923 29.1471 44.1347 31.4412C46.3465 33.7353 47.6104 37.2549 47.9263 42H44.4902C44.1742 38.1176 43.2461 35.3431 41.7057 33.6765C40.1851 32.0098 37.8746 31.1765 34.7742 31.1765C31.5158 31.1765 28.9782 32.3824 27.1614 34.7941C25.3445 37.2059 24.4361 40.7059 24.4361 45.2941V54.4706C24.4361 59.0196 25.3149 62.5588 27.0725 65.0882C28.8301 67.6176 31.3084 68.8824 34.5076 68.8824C37.8648 68.8824 40.2937 68.049 41.7946 66.3824C43.2954 64.7157 44.194 61.9412 44.4902 58.0588H47.9263Z" fill="#4ACAFD"/>
<path d="M78.9415 66.4412C77.4999 68.2843 75.6831 69.6765 73.4911 70.6176C71.2991 71.5392 68.8997 72 66.293 72C61.8694 72 58.3938 70.5294 55.866 67.5882C53.3383 64.6471 52.0251 60.5686 51.9263 55.3529V44.9412C51.9263 39.4706 53.1211 35.2843 55.5106 32.3824C57.9198 29.4608 61.3461 28 65.7894 28C69.7587 28 72.869 29.0882 75.1203 31.2647C77.3716 33.4412 78.6354 36.5784 78.9119 40.6765H75.535C75.1795 37.3824 74.202 34.9804 72.6024 33.4706C71.0226 31.9412 68.7615 31.1765 65.819 31.1765C62.3039 31.1765 59.6675 32.3431 57.91 34.6765C56.1721 36.9902 55.3032 40.3922 55.3032 44.8824V54.7647C55.3032 59.2353 56.261 62.7059 58.1766 65.1765C60.1119 67.6471 62.8173 68.8824 66.293 68.8824C70.0648 68.8824 73.1455 67.6961 75.535 65.3235V54.1765H66.0856V51.0294H78.9415V66.4412Z" fill="#8C95FF"/>
</svg>
